<?xml version="1.0" standalone="no"?>
<!DOCTYPE svg PUBLIC "-//W3C//DTD SVG 20010904//EN"
 "http://www.w3.org/TR/2001/REC-SVG-20010904/DTD/svg10.dtd">
<svg version="1.0" xmlns="http://www.w3.org/2000/svg"
 width="638.000000pt" height="638.000000pt" viewBox="0 0 638.000000 638.000000"
 preserveAspectRatio="xMidYMid meet">
<metadata>
Created by potrace 1.14, written by Peter Selinger 2001-2017
</metadata>
<g transform="translate(0.000000,638.000000) scale(0.100000,-0.100000)"
fill="#000000" stroke="none">
<path d="M0 3190 l0 -3190 3190 0 3190 0 0 3190 0 3190 -3190 0 -3190 0 0
-3190z m3185 1115 l0 -160 -70 -6 c-97 -9 -138 -17 -225 -46 -330 -111 -574
-385 -645 -725 -19 -94 -19 -282 0 -376 80 -383 374 -677 757 -757 94 -19 282
-19 376 0 162 34 320 113 453 226 29 24 41 29 55 21 27 -15 204 -197 204 -210
0 -11 -21 -32 -95 -97 -44 -38 -188 -126 -275 -167 -208 -99 -468 -138 -700
-104 -63 9 -128 21 -145 26 -262 78 -426 173 -599 347 -120 120 -236 299 -297
460 -40 107 -79 322 -79 443 0 80 22 250 41 315 85 295 205 481 444 690 35 30
184 124 235 147 45 21 118 52 151 66 82 33 292 71 379 68 l35 -1 0 -160z m439
85 c106 -42 168 -71 189 -88 16 -14 17 -56 17 -617 0 -600 0 -603 -23 -683
-63 -218 -241 -390 -463 -448 -71 -18 -237 -18 -309 0 -189 50 -340 175 -424
351 -44 91 -64 172 -59 230 l3 40 155 0 155 0 3 -25 c2 -14 10 -45 18 -69 82
-245 408 -299 558 -92 68 94 66 75 66 781 0 350 3 640 7 643 11 12 30 8 107
-23z"/>
</g>
</svg>
